<svg width="45" height="45" viewBox="0 0 45 45" fill="none" xmlns="http://www.w3.org/2000/svg">
<path d="M7.03123 12.0234C7.03123 12.0234 5.55467 13.3594 6.39842 15.1172C7.24217 16.875 6.82029 17.9297 6.82029 17.9297C6.82029 17.9297 8.50779 15.6797 7.87498 14.2734C7.31248 12.9375 7.24217 12.7969 7.03123 12.0234Z" fill="#411919"/>
<path d="M3.16406 20.9531C3.16406 20.9531 4.92188 21.7969 5.69531 19.9687C6.46875 18.2109 7.45313 18 7.45313 18C7.45313 18 4.99219 17.5781 4.35938 18.914C3.65625 20.25 3.58594 20.3906 3.16406 20.9531Z" fill="#411919"/>
<path d="M9.98437 14.0625C9.98437 14.0625 8.22656 14.7656 8.57812 16.8047C8.92969 18.7734 8.29688 19.6875 8.29688 19.6875C8.29688 19.6875 10.4766 18.1406 10.1953 16.5938C9.98437 15.0469 9.98437 14.8359 9.98437 14.0625Z" fill="#411919"/>
<path d="M5.27344 23.9062C5.27344 23.9062 7.10156 24.0469 7.45313 22.0078C7.73438 19.9687 8.57812 19.4766 8.57812 19.4766C8.57812 19.4766 6.11719 19.8984 5.83594 21.4453C5.625 22.9922 5.55469 23.1328 5.27344 23.9062Z" fill="#411919"/>
<path d="M3.9375 14.9062C5.90625 16.3125 7.66406 18.4219 9 20.6719C10.4062 22.9922 11.3203 25.7344 11.1797 28.6875H11.1094C10.6172 25.9453 9.91406 23.2734 8.64844 20.9531C8.08594 19.8984 7.45313 18.9141 6.75 18C6.25781 17.3672 5.76563 16.7344 5.20313 16.1719C4.99219 15.8906 3.9375 15.1172 3.9375 14.9062Z" fill="#411919"/>
<path d="M1.40625 13.5703C1.40625 13.5703 1.6875 15.8203 3.375 15.75C5.0625 15.6797 5.625 16.5938 5.625 16.5938C5.625 16.5938 4.78125 13.7813 3.44531 13.7813C2.17969 13.7109 2.03906 13.7813 1.40625 13.5703Z" fill="#411919"/>
<path d="M11.3906 21.4453L8.15625 23.9062L12.2344 23.4141L11.3906 21.4453Z" fill="#411919"/>
<path d="M19.5469 22.5703C19.7578 16.9453 27.7031 12.375 31.9219 5.13283C33.75 2.03908 35.2969 3.65627 34.1719 9.28127C41.4141 10.6172 28.5469 26.5078 25.9453 27.6328L19.5469 22.5703Z" fill="#411919"/>
<path d="M19.0547 23.0625C19.2656 17.4375 29.6719 14.625 34.2422 8.57813C43.8047 -4.07812 46.125 2.95313 40.7109 7.10157C47.9531 8.43751 39.0234 13.1484 39.0234 13.1484C47.0391 13.5703 38.3906 17.8594 38.3906 17.8594C45.0703 19.125 36.2812 21.5156 36.2812 21.5156C40.7109 23.1328 34.4531 24.8906 34.4531 24.8906C37.6172 27.3516 31.3594 27.6328 28.7578 28.7578L19.0547 23.0625Z" fill="#411919"/>
<path d="M10.8984 22.5703C10.8984 21.2344 12.5156 19.4766 14.9062 19.4766C21.3047 19.4766 27.7031 26.2969 32.3437 32.4141C35.0859 36 39.6562 34.3828 41.0625 36.3516C42.0469 37.7578 39.9375 38.3906 39.9375 38.3906C39.9375 38.3906 41.6953 41.4141 38.3203 40.2891C38.3203 40.2891 39.4453 43.875 35.3672 42.3281C35.3672 42.3281 34.4531 44.6484 32.4844 43.1719C29.8828 41.2031 31.9922 35.2969 24.3984 33.5391C11.6016 30.4453 14.0625 25.8047 13.2187 24.6797C12.7969 24.0469 10.8984 23.2734 10.8984 22.5703Z" fill="#411919"/>
<path d="M14.0625 22.4297C14.4897 22.4297 14.8359 22.0834 14.8359 21.6562C14.8359 21.2291 14.4897 20.8828 14.0625 20.8828C13.6353 20.8828 13.2891 21.2291 13.2891 21.6562C13.2891 22.0834 13.6353 22.4297 14.0625 22.4297Z" fill="#464D51"/>
</svg>
