<svg width="46" height="46" viewBox="0 0 46 46" fill="none" xmlns="http://www.w3.org/2000/svg">
<path d="M25.1562 43.125H20.8438C19.6549 43.125 18.6875 42.1576 18.6875 40.9688V23.7188C18.6875 23.3234 18.3641 23 17.9688 23H9.34375C8.15494 23 7.1875 22.0326 7.1875 20.8438V16.5312C7.1875 15.3424 8.15494 14.375 9.34375 14.375H15.0938C15.4905 14.375 15.8125 14.697 15.8125 15.0938C15.8125 15.4905 15.4905 15.8125 15.0938 15.8125H9.34375C8.94844 15.8125 8.625 16.1359 8.625 16.5312V20.8438C8.625 21.2391 8.94844 21.5625 9.34375 21.5625H17.9688C19.1576 21.5625 20.125 22.5299 20.125 23.7188V40.9688C20.125 41.3641 20.4484 41.6875 20.8438 41.6875H25.1562C25.5516 41.6875 25.875 41.3641 25.875 40.9688V23.7188C25.875 22.5299 26.8424 21.5625 28.0312 21.5625H36.6562C37.0516 21.5625 37.375 21.2391 37.375 20.8438V16.5312C37.375 16.1359 37.0516 15.8125 36.6562 15.8125H28.0312C26.8424 15.8125 25.875 14.8451 25.875 13.6562V5.03125C25.875 4.63594 25.5516 4.3125 25.1562 4.3125H20.8438C20.4484 4.3125 20.125 4.63594 20.125 5.03125V15.0938C20.125 15.4905 19.803 15.8125 19.4062 15.8125C19.0095 15.8125 18.6875 15.4905 18.6875 15.0938V5.03125C18.6875 3.84244 19.6549 2.875 20.8438 2.875H25.1562C26.3451 2.875 27.3125 3.84244 27.3125 5.03125V13.6562C27.3125 14.0516 27.6359 14.375 28.0312 14.375H36.6562C37.8451 14.375 38.8125 15.3424 38.8125 16.5312V20.8438C38.8125 22.0326 37.8451 23 36.6562 23H28.0312C27.6359 23 27.3125 23.3234 27.3125 23.7188V40.9688C27.3125 42.1576 26.3451 43.125 25.1562 43.125Z" fill="#411919" stroke="#411919" stroke-width="3.904"/>
<path d="M25.1562 43.125H20.8438C19.6549 43.125 18.6875 42.1576 18.6875 40.9688V23.7188C18.6875 23.3234 18.3641 23 17.9688 23H9.34375C8.15494 23 7.1875 22.0326 7.1875 20.8438V16.5312C7.1875 15.3424 8.15494 14.375 9.34375 14.375H15.0938C15.4905 14.375 15.8125 14.697 15.8125 15.0938C15.8125 15.4905 15.4905 15.8125 15.0938 15.8125H9.34375C8.94844 15.8125 8.625 16.1359 8.625 16.5312V20.8438C8.625 21.2391 8.94844 21.5625 9.34375 21.5625H17.9688C19.1576 21.5625 20.125 22.5299 20.125 23.7188V40.9688C20.125 41.3641 20.4484 41.6875 20.8438 41.6875H25.1562C25.5516 41.6875 25.875 41.3641 25.875 40.9688V23.7188C25.875 22.5299 26.8424 21.5625 28.0312 21.5625H36.6562C37.0516 21.5625 37.375 21.2391 37.375 20.8438V16.5312C37.375 16.1359 37.0516 15.8125 36.6562 15.8125H28.0312C26.8424 15.8125 25.875 14.8451 25.875 13.6562V5.03125C25.875 4.63594 25.5516 4.3125 25.1562 4.3125H20.8438C20.4484 4.3125 20.125 4.63594 20.125 5.03125V15.0938C20.125 15.4905 19.803 15.8125 19.4062 15.8125C19.0095 15.8125 18.6875 15.4905 18.6875 15.0938V5.03125C18.6875 3.84244 19.6549 2.875 20.8438 2.875H25.1562C26.3451 2.875 27.3125 3.84244 27.3125 5.03125V13.6562C27.3125 14.0516 27.6359 14.375 28.0312 14.375H36.6562C37.8451 14.375 38.8125 15.3424 38.8125 16.5312V20.8438C38.8125 22.0326 37.8451 23 36.6562 23H28.0312C27.6359 23 27.3125 23.3234 27.3125 23.7188V40.9688C27.3125 42.1576 26.3451 43.125 25.1562 43.125Z" fill="#411919" stroke="#411919" stroke-width="3.904"/>
</svg>
