<svg width="53" height="53" viewBox="0 0 53 53" fill="none" xmlns="http://www.w3.org/2000/svg">
<g filter="url(#filter0_d_134_186)">
<mask id="mask0_134_186" style="mask-type:alpha" maskUnits="userSpaceOnUse" x="0" y="0" width="53" height="53">
<rect width="53" height="53" fill="#D9D9D9"/>
</mask>
<g mask="url(#mask0_134_186)">
<path d="M7.2323 39.0875L16.3417 14.7958H20.7031L29.8125 39.0875H25.6167L23.4636 32.9042H13.6365L11.4281 39.0875H7.2323ZM14.9063 29.3708H22.1386L18.6052 19.3229H18.3844L14.9063 29.3708ZM36.7136 39.6396C34.8365 39.6396 33.3458 39.1335 32.2417 38.1214C31.1375 37.1092 30.5854 35.775 30.5854 34.1187C30.5854 32.4993 31.2203 31.1651 32.4901 30.1161C33.7599 29.0672 35.3886 28.5427 37.3761 28.5427C38.2226 28.5427 39.0507 28.6163 39.8604 28.7635C40.6702 28.9108 41.3695 29.1132 41.9583 29.3708V28.7083C41.9583 27.641 41.5811 26.776 40.8266 26.1135C40.0721 25.451 39.0691 25.1198 37.8177 25.1198C36.9712 25.1198 36.1983 25.2946 35.499 25.6443C34.7997 25.9939 34.1924 26.5 33.6771 27.1625L31.0823 25.2302C31.9656 24.1628 32.9686 23.3715 34.0912 22.8562C35.2137 22.341 36.4743 22.0833 37.8729 22.0833C40.4125 22.0833 42.308 22.6814 43.5594 23.8776C44.8108 25.0738 45.4365 26.8681 45.4365 29.2604V39.0875H41.9583V37.0448H41.7375C41.2222 37.8913 40.5229 38.5354 39.6396 38.9771C38.7563 39.4187 37.7809 39.6396 36.7136 39.6396ZM37.3761 36.6583C38.6642 36.6583 39.7592 36.2167 40.661 35.3333C41.5627 34.45 42.0136 33.4194 42.0136 32.2417C41.4983 31.9472 40.8818 31.7172 40.1641 31.5516C39.4464 31.3859 38.7379 31.3031 38.0386 31.3031C36.8608 31.3031 35.9406 31.5608 35.2781 32.076C34.6156 32.5913 34.2844 33.2722 34.2844 34.1187C34.2844 34.8549 34.5788 35.4622 35.1677 35.9406C35.7566 36.4191 36.4927 36.6583 37.3761 36.6583Z" fill="white"/>
</g>
</g>
<defs>
<filter id="filter0_d_134_186" x="3.2323" y="14.7958" width="46.2042" height="32.8438" filterUnits="userSpaceOnUse" color-interpolation-filters="sRGB">
<feFlood flood-opacity="0" result="BackgroundImageFix"/>
<feColorMatrix in="SourceAlpha" type="matrix" values="0 0 0 0 0 0 0 0 0 0 0 0 0 0 0 0 0 0 127 0" result="hardAlpha"/>
<feOffset dy="4"/>
<feGaussianBlur stdDeviation="2"/>
<feComposite in2="hardAlpha" operator="out"/>
<feColorMatrix type="matrix" values="0 0 0 0 0 0 0 0 0 0 0 0 0 0 0 0 0 0 0.25 0"/>
<feBlend mode="normal" in2="BackgroundImageFix" result="effect1_dropShadow_134_186"/>
<feBlend mode="normal" in="SourceGraphic" in2="effect1_dropShadow_134_186" result="shape"/>
</filter>
</defs>
</svg>
