<svg width="40" height="34" viewBox="0 0 40 34" fill="none" xmlns="http://www.w3.org/2000/svg">
<path d="M29.0287 16.3811L22 11.9V8.5H25C25.5525 8.5 26 8.02453 26 7.4375V5.3125C26 4.72547 25.5525 4.25 25 4.25H22V1.0625C22 0.475469 21.5525 0 21 0H19C18.4475 0 18 0.475469 18 1.0625V4.25H15C14.4475 4.25 14 4.72547 14 5.3125V7.4375C14 8.02453 14.4475 8.5 15 8.5H18V11.9L10.9712 16.3811C10.675 16.5698 10.4299 16.8369 10.2597 17.1562C10.0895 17.4756 10 17.8363 10 18.2033V34H16V27.625C16 25.2775 17.7906 23.375 20 23.375C22.2094 23.375 24 25.2775 24 27.625V34H30V18.2033C30 17.4569 29.6313 16.7649 29.0287 16.3811ZM0 26.2942V32.9375C0 33.5245 0.4475 34 1 34H8V21.25L1.21187 24.3405C0.85221 24.5046 0.545715 24.7771 0.330319 25.1244C0.114923 25.4716 7.9391e-05 25.8783 0 26.2942ZM38.7881 24.3405L32 21.25V34H39C39.5525 34 40 33.5245 40 32.9375V26.2942C40 25.4442 39.5231 24.6759 38.7881 24.3405Z" fill="#411919"/>
</svg>
