<svg width="35" height="35" viewBox="0 0 35 35" fill="none" xmlns="http://www.w3.org/2000/svg">
<g clip-path="url(#clip0_151_217)">
<path d="M12.5899 11.8774C10.7692 11.8774 9.29297 13.3535 9.29317 15.1743L9.29297 19.0824V11.312L14.9773 5.62796C16.2645 4.34061 16.2645 2.25319 14.9771 0.965709C13.6896 -0.321566 11.6024 -0.321635 10.3148 0.965846L2.69998 8.58067L2.70032 8.58101H2.69998L2.69984 25.6754L0.368652 28.0066L7.36223 35.0001L15.9095 26.4527L15.8865 15.1742C15.8865 13.3535 14.4105 11.8774 12.5899 11.8774Z" fill="#411919"/>
<path d="M32.3005 25.6753V8.58087H32.3001L32.3005 8.58053L24.6854 0.965566C23.3979 -0.321914 21.3107 -0.321914 20.0231 0.96543C18.7358 2.25291 18.7358 4.34033 20.0231 5.62768L25.7072 11.3118L25.707 19.082L25.7069 15.174C25.7071 13.3533 24.231 11.8772 22.4104 11.8773C20.5897 11.8773 19.1136 13.3533 19.1136 15.174L19.0907 26.4525L27.6381 35L34.6314 28.0066L32.3005 25.6753Z" fill="#411919"/>
</g>
<defs>
<clipPath id="clip0_151_217">
<rect width="35" height="35" fill="white"/>
</clipPath>
</defs>
</svg>
