<svg width="49" height="49" viewBox="0 0 49 49" fill="none" xmlns="http://www.w3.org/2000/svg">
<path d="M24.4393 13.4986C23.7311 13.8415 23.0294 14.3166 22.3785 14.9683C19.1159 18.2316 16.1501 21.1974 16.1501 21.1974L16.1513 21.1993C16.1336 21.2171 16.1158 21.2317 16.098 21.25C15.2535 22.0952 15.22 23.4425 15.9999 24.3265C16.0308 24.362 16.0639 24.3969 16.098 24.4304C16.9748 25.3084 18.3983 25.3105 19.2784 24.4304L22.7043 21.0045C23.2954 21.2211 23.8765 21.3475 24.4341 21.4106C25.1937 21.4948 25.9071 21.4633 26.5416 21.3738C28.0884 21.1546 27.9265 21.2184 28.8236 20.9236C29.7187 20.63 30.7244 20.0284 30.7244 20.0284L31.3333 20.6366C31.4004 20.7017 32.9525 22.2563 33.7442 23.0469C33.8845 23.1876 34.0035 23.3035 34.0832 23.3865C34.1747 23.4819 34.2767 23.551 34.3399 23.6432L38.2903 27.5937C39.429 26.3161 40.7296 24.4133 40.569 22.2288L30.698 12.3591C30.698 12.3591 27.2813 12.115 24.4393 13.4986Z" fill="#411919"/>
<path d="M24.9895 37.7417C24.1153 36.8663 22.6964 36.8663 21.8216 37.7417L21.1714 38.3919C22.0441 37.5179 22.0435 36.1021 21.1694 35.2273C20.2947 34.354 18.8776 34.354 18.0029 35.228C18.8776 34.354 18.8776 32.9369 18.0029 32.0615C17.1288 31.186 15.7111 31.1874 14.8364 32.0615C15.7111 31.1874 15.7111 29.7697 14.8364 28.8942C13.9622 28.0202 12.5446 28.0202 11.6697 28.8955L9.71165 30.853C8.83692 31.7283 8.83692 33.1448 9.71165 34.0202C10.5857 34.8943 12.0029 34.8943 12.8775 34.0202C12.0028 34.8943 12.0028 36.312 12.8775 37.1867C13.7529 38.0607 15.17 38.0607 16.0447 37.1867C15.17 38.0607 15.17 39.4779 16.0447 40.3533C16.9194 41.2274 18.3365 41.2274 19.2113 40.3533L19.8623 39.7017C18.9896 40.5771 18.9902 41.9928 19.8642 42.8676C20.7389 43.7416 22.156 43.7416 23.0308 42.8676L24.9896 40.9088C25.8636 40.0328 25.8636 38.6157 24.9895 37.7417Z" fill="#411919"/>
<path d="M48.6159 17.0619L37.0891 5.53374C36.577 5.02297 35.749 5.02297 35.2383 5.53374L31.5412 9.23075C31.0304 9.74152 31.0304 10.5695 31.5412 11.081L43.0694 22.6085C43.5795 23.1205 44.4088 23.1205 44.9189 22.6085L48.6159 18.9107C49.128 18.4014 49.128 17.5734 48.6159 17.0619ZM45.3303 19.6184C44.78 20.1673 43.8901 20.1673 43.3418 19.6184C42.793 19.0687 42.793 18.1789 43.3418 17.6299C43.8901 17.081 44.78 17.081 45.3303 17.6299C45.8792 18.1789 45.8785 19.0687 45.3303 19.6184Z" fill="#411919"/>
<path d="M17.4579 9.55729L13.7614 5.86028C13.2507 5.34951 12.422 5.34951 11.9113 5.86028L0.383076 17.3884C-0.127692 17.8978 -0.127692 18.7272 0.383076 19.2373L4.08018 22.9356C4.59028 23.4458 5.42022 23.4458 5.92965 22.9356L17.4579 11.4074C17.9693 10.8967 17.9693 10.0686 17.4579 9.55729ZM5.65775 19.9448C5.1088 20.4931 4.21838 20.4931 3.66933 19.9448C3.12047 19.3953 3.12047 18.5053 3.66933 17.9564C4.21828 17.4075 5.1088 17.4075 5.65775 17.9564C6.20671 18.5053 6.20671 19.3952 5.65775 19.9448Z" fill="#411919"/>
<path d="M38.0447 29.9368L37.3299 29.2208L30.3906 22.2814L29.9233 22.4887L29.4145 22.6724L29.3778 22.6836C29.2882 22.7119 28.451 22.9679 26.8003 23.2015C25.9275 23.3233 25.0627 23.3385 24.2255 23.243C23.8945 23.2062 23.5653 23.1521 23.2401 23.0811L20.5837 25.7363C18.9876 27.3324 16.3885 27.3324 14.7923 25.7363C14.7364 25.6797 14.6824 25.6224 14.6324 25.5659L14.6153 25.5467C13.6076 24.4041 13.3516 22.8402 13.8255 21.4831L14.847 19.8935L14.8451 19.8916L21.0735 13.6638C21.3269 13.4111 21.5928 13.1755 21.8692 12.9529C19.9282 12.5719 18.2999 12.6844 18.2999 12.6844L8.43076 22.5552C8.29783 24.3724 9.5458 26.3641 10.4336 27.5272C12.0311 25.9995 14.5717 26.0193 16.1415 27.5898C16.7259 28.1736 17.0939 28.893 17.2491 29.6472C18.0047 29.8039 18.7235 30.1712 19.308 30.7556C19.8925 31.3408 20.2604 32.0602 20.4158 32.8151C21.1707 32.9704 21.8907 33.3376 22.4746 33.9222C22.8649 34.3124 23.1591 34.7627 23.3572 35.2445C24.4195 35.2314 25.4858 35.6288 26.2941 36.4365C27.8876 38.0286 27.8869 40.6219 26.2941 42.2134L25.6425 42.8663L25.9689 43.1928C26.8444 44.0682 28.2614 44.0682 29.1362 43.1928C30.011 42.3187 30.011 40.901 29.1362 40.0262L29.7878 40.6799C30.6632 41.5539 32.0796 41.5539 32.9543 40.6799C33.829 39.8045 33.8297 38.3874 32.9543 37.512C33.8297 38.3874 35.2461 38.3874 36.1208 37.512C36.995 36.6386 36.9969 35.2209 36.1208 34.3454C36.9969 35.2209 38.4133 35.2209 39.2875 34.3454C40.1629 33.4714 40.1629 32.0536 39.2875 31.1795L38.0447 29.9368Z" fill="#411919"/>
</svg>
