<svg width="32" height="31" viewBox="0 0 32 31" fill="none" xmlns="http://www.w3.org/2000/svg">
<path d="M32 21.7969V1.45312C32 0.647852 31.2357 0 30.2857 0H6.85714C3.07143 0 0 2.60352 0 5.8125V25.1875C0 28.3965 3.07143 31 6.85714 31H30.2857C31.2357 31 32 30.3521 32 29.5469V28.5781C32 28.124 31.75 27.7123 31.3643 27.4459C31.0643 26.5135 31.0643 23.8555 31.3643 22.923C31.75 22.6627 32 22.251 32 21.7969ZM9.14286 8.11328C9.14286 7.91348 9.33571 7.75 9.57143 7.75H24.7143C24.95 7.75 25.1429 7.91348 25.1429 8.11328V9.32422C25.1429 9.52402 24.95 9.6875 24.7143 9.6875H9.57143C9.33571 9.6875 9.14286 9.52402 9.14286 9.32422V8.11328ZM9.14286 11.9883C9.14286 11.7885 9.33571 11.625 9.57143 11.625H24.7143C24.95 11.625 25.1429 11.7885 25.1429 11.9883V13.1992C25.1429 13.399 24.95 13.5625 24.7143 13.5625H9.57143C9.33571 13.5625 9.14286 13.399 9.14286 13.1992V11.9883ZM27.2429 27.125H6.85714C5.59286 27.125 4.57143 26.2592 4.57143 25.1875C4.57143 24.1219 5.6 23.25 6.85714 23.25H27.2429C27.1071 24.2854 27.1071 26.0896 27.2429 27.125Z" fill="#411919"/>
</svg>
