<svg width="31" height="35" viewBox="0 0 31 35" fill="none" xmlns="http://www.w3.org/2000/svg">
<path d="M2 16.1011V23.8409C2 28.6407 2 31.0405 3.13787 32.0891C3.68054 32.5893 4.36554 32.9035 5.09523 32.9869C6.62524 33.162 8.41197 31.5816 11.9854 28.421C13.5649 27.024 14.3548 26.3254 15.2685 26.1414C15.7185 26.0508 16.1816 26.0508 16.6316 26.1414C17.5453 26.3254 18.3352 27.024 19.9146 28.421C23.4881 31.5816 25.2748 33.162 26.8048 32.9869C27.5346 32.9035 28.2195 32.5893 28.7622 32.0891C29.9 31.0405 29.9 28.6407 29.9 23.8409V16.1011C29.9 9.45382 29.9 6.13014 27.8571 4.06507C25.8142 2 22.5261 2 15.95 2C9.37392 2 6.08587 2 4.04293 4.06507C2.79174 5.32982 2.30684 7.06666 2.11892 9.75001" stroke="white" stroke-width="2.2" stroke-linecap="round"/>
<path d="M20.6003 8.20001H11.3003" stroke="white" stroke-width="2.2" stroke-linecap="round"/>
</svg>
