<svg width="25" height="35" viewBox="0 0 25 35" fill="none" xmlns="http://www.w3.org/2000/svg">
<path d="M22.9378 31.8484H4.31953C3.67551 31.8484 3.15177 31.3245 3.15177 30.6806C3.15177 30.0473 3.66649 29.5128 4.31953 29.5128H21.6924H21.7615C22.8969 29.5128 23.8205 28.5892 23.8205 27.4539V3.05895C23.8204 1.92361 22.8967 1 21.7614 1H4.34724C2.5169 1 1.02784 2.48906 1.02784 4.3194C1 29.7396 1 30.6806 1 30.6806C1 32.8835 2.46379 34 4.3194 34H22.9377C23.5318 34 24.0136 33.5183 24.0136 32.9241C24.0136 32.33 23.532 31.8484 22.9378 31.8484ZM3.17948 4.3194C3.17948 3.67551 3.70336 3.15164 4.34724 3.15164H21.6687V27.3611H4.31953C3.94055 27.3611 3.54345 27.4286 3.17948 27.5609V4.3194Z" fill="white" stroke="white" stroke-width="0.2"/>
<path d="M14.8422 10.4666H13.5003V8.68498C13.5003 8.09085 13.0186 7.60913 12.4244 7.60913C11.8303 7.60913 11.3486 8.09079 11.3486 8.68498V10.4666H10.0065C9.41239 10.4666 8.93066 10.9483 8.93066 11.5424C8.93066 12.1366 9.41226 12.6183 10.0065 12.6183H11.3486V18.3563C11.3486 18.9504 11.8302 19.4322 12.4244 19.4322C13.0186 19.4322 13.5003 18.9505 13.5003 18.3563V12.6183H14.8422C15.4364 12.6183 15.9181 12.1366 15.9181 11.5424C15.918 10.9483 15.4364 10.4666 14.8422 10.4666Z" fill="white" stroke="white" stroke-width="0.1"/>
</svg>
