<svg width="95" height="95" viewBox="0 0 95 95" fill="none" xmlns="http://www.w3.org/2000/svg">
<path fill-rule="evenodd" clip-rule="evenodd" d="M91.0418 15.8334C91.0418 12.334 86.5095 11.0893 83.5111 10.2659C83.2356 10.1902 82.9732 10.1181 82.7281 10.0482C78.9836 8.97823 73.6655 7.91669 67.2918 7.91669C60.4685 7.91669 54.8425 10.1888 50.9791 12.3966C50.3882 12.7343 49.7667 13.2007 49.205 13.6223C48.4632 14.1794 47.8259 14.658 47.5002 14.658C47.1744 14.658 46.5371 14.1794 45.7953 13.6223C45.2336 13.2007 44.6122 12.7343 44.0212 12.3966C40.1579 10.1888 34.5318 7.91669 27.7085 7.91669C21.3347 7.91669 16.0168 8.97823 12.2721 10.0482C12.0366 10.1154 11.7843 10.1849 11.5195 10.2578C8.53433 11.0798 3.9585 12.3398 3.9585 15.8334V67.2917C3.9585 68.6637 4.66882 69.9374 5.83581 70.659C7.69235 71.8062 10.1424 70.8019 12.3135 69.9121C13.0709 69.6014 13.7944 69.3049 14.447 69.1185C17.6294 68.2092 22.2073 67.2917 27.7085 67.2917C32.7011 67.2917 36.4388 68.9388 39.2407 70.663C39.9603 71.1059 40.6879 71.6708 41.4344 72.2503C43.2798 73.6836 45.2431 75.2084 47.5002 75.2084C49.7635 75.2084 51.717 73.6891 53.5592 72.2566C54.3065 71.6751 55.0356 71.1083 55.7596 70.663C58.5617 68.9388 62.2992 67.2917 67.2918 67.2917C72.7931 67.2917 77.3709 68.2092 80.5534 69.1185C81.2359 69.3136 81.9769 69.6263 82.746 69.9513C84.8839 70.8542 87.2391 71.8489 89.1644 70.659C90.3313 69.9374 91.0418 68.6637 91.0418 67.2917V15.8334ZM13.1914 18.0401C12.3962 18.2939 11.8752 19.0427 11.8752 19.8774V58.9756C11.8752 60.2973 13.1454 61.2485 14.4301 60.939C17.9543 60.0903 22.4747 59.375 27.7085 59.375C34.6874 59.375 39.8978 61.7477 43.5418 64.0146V21.5954C42.7458 20.9631 41.5773 20.1181 40.0937 19.2701C37.0301 17.5196 32.7602 15.8334 27.7085 15.8334C21.4349 15.8334 16.3476 17.0326 13.1914 18.0401ZM67.2918 59.375C60.3129 59.375 55.1025 61.7477 51.4585 64.0146V21.5954C52.2545 20.9631 53.423 20.1181 54.9066 19.2701C57.9704 17.5196 62.2402 15.8334 67.2918 15.8334C73.5654 15.8334 78.6526 17.0326 81.809 18.0401C82.6042 18.2939 83.1252 19.0427 83.1252 19.8774V58.9756C83.1252 60.2973 81.8549 61.2485 80.5701 60.939C77.046 60.0903 72.5255 59.375 67.2918 59.375Z" fill="white"/>
<path d="M8.26274 80.7845C7.36919 78.7895 8.26227 76.4477 10.2574 75.5539C12.1109 74.7302 14.0297 74.0379 15.9595 73.4184C19.1613 72.3912 23.5885 71.25 27.7087 71.25C32.3276 71.25 36.2699 73.7394 39.1272 75.5436C39.2739 75.6363 39.4177 75.7269 39.5586 75.8156C42.8877 77.9083 45.1269 79.1667 47.5003 79.1667C49.871 79.1667 52.0967 77.9115 55.4217 75.8172C55.5583 75.7313 55.6972 75.6434 55.8389 75.5535C58.6988 73.745 62.6437 71.25 67.292 71.25C71.4344 71.25 75.8606 72.3904 79.0609 73.4192C81.9346 74.3431 84.0666 75.2567 84.6144 75.4973C86.6174 76.3832 87.6548 78.7483 86.7345 80.7916C85.8435 82.7712 83.4653 83.6495 81.4921 82.7723C79.9123 82.0757 78.2807 81.4843 76.6376 80.9559C73.6815 80.0055 70.1911 79.1667 67.292 79.1667C65.0789 79.1667 62.9525 80.4278 59.4026 82.6663C56.46 84.5219 52.398 87.0834 47.5003 87.0834C42.5995 87.0834 38.5242 84.5188 35.5733 82.6615C32.0163 80.4227 29.8946 79.1667 27.7087 79.1667C24.834 79.1667 21.3445 80.0047 18.3783 80.9567C16.7258 81.4867 15.0805 82.0765 13.4923 82.7799C11.4973 83.6725 9.15614 82.7795 8.26274 80.7845Z" fill="white"/>
</svg>
