<svg width="34" height="34" viewBox="0 0 34 34" fill="none" xmlns="http://www.w3.org/2000/svg">
<path d="M31.3932 28.8888C31.3932 28.8888 27.6195 22.403 26.9426 21.2398C27.7127 21.0049 28.5331 20.7974 28.874 20.2088C29.4421 19.228 28.4309 17.6192 28.6964 16.568C28.9699 15.4861 30.5847 14.5499 30.5847 13.4501C30.5847 12.3787 28.9153 11.127 28.6416 10.0514C28.3742 9.00039 29.3824 7.38979 28.8125 6.41024C28.2425 5.43059 26.3441 5.51108 25.5627 4.75912C24.7586 3.98529 24.7611 2.09197 23.7913 1.57339C22.8175 1.05288 21.235 2.10483 20.1538 1.85565C19.0849 1.60931 18.13 0 17.0135 0C15.8805 0 14.0785 1.82551 13.7958 1.89121C12.7152 2.14241 11.1306 1.09303 10.1579 1.61574C9.18896 2.13607 9.19493 4.02958 8.39234 4.80469C7.61217 5.55803 5.71371 5.48103 5.14551 6.46178C4.5774 7.44235 5.58865 9.05083 5.32321 10.1026C5.05703 11.157 3.38606 12.2254 3.38606 13.4449C3.38606 14.5447 5.00484 15.478 5.28002 16.5593C5.54749 17.6104 4.53927 19.2208 5.10921 20.2007C5.4195 20.7341 6.1235 20.953 6.82658 21.1635C6.90863 21.1881 7.06382 21.2799 6.95871 21.433C6.4777 22.2633 2.60626 28.9448 2.60626 28.9448C2.29827 29.4763 2.54837 29.9318 3.16187 29.9577L6.16485 30.0829C6.77834 30.1087 7.54795 30.5545 7.87541 31.0739L9.47783 33.6167C9.8053 34.1361 10.3249 34.1263 10.6328 33.595C10.6328 33.595 15.1164 25.8543 15.1182 25.8521C15.2081 25.747 15.2986 25.7686 15.3418 25.8053C15.8324 26.223 16.5163 26.6397 17.087 26.6397C17.6468 26.6397 18.1651 26.2475 18.6778 25.81C18.7195 25.7745 18.821 25.7016 18.8953 25.8528C18.8965 25.8552 23.3751 33.5535 23.3751 33.5535C23.6838 34.0843 24.2035 34.0933 24.5299 33.5732L26.1279 31.0274C26.4544 30.5077 27.2232 30.0601 27.8367 30.0334L30.8394 29.9025C31.4526 29.8756 31.7019 29.4194 31.3932 28.8888ZM21.9764 21.9259C18.6561 23.8575 14.6707 23.6505 11.6267 21.7305C7.16627 18.8734 5.69864 12.9632 8.38003 8.33516C11.092 3.65378 17.0536 2.00192 21.7772 4.57453C21.802 4.58803 21.8265 4.602 21.8511 4.61578C21.8861 4.63517 21.921 4.65483 21.9559 4.67468C23.4131 5.51485 24.6768 6.73421 25.5816 8.2895C28.3471 13.0431 26.7299 19.1604 21.9764 21.9259Z" fill="black"/>
<path d="M21.2171 6.07367C21.2033 6.06568 21.1893 6.05823 21.1755 6.05033C18.6523 4.58996 15.4362 4.48319 12.7409 6.05134C8.74105 8.37834 7.38 13.5255 9.707 17.5252C10.4171 18.7458 11.3901 19.7201 12.5127 20.4193C12.6082 20.4798 12.7047 20.5392 12.8034 20.5963C16.8075 22.9161 21.9519 21.5458 24.2716 17.5418C26.5911 13.5377 25.2212 8.39341 21.2171 6.07367ZM22.2188 12.6194L20.8167 13.986C20.3825 14.4092 20.1111 15.2446 20.2137 15.8423L20.5447 17.7719C20.6472 18.3696 20.292 18.6277 19.7552 18.3455L18.0222 17.4344C17.4855 17.1522 16.6072 17.1522 16.0704 17.4344L14.3375 18.3455C13.8007 18.6277 13.4454 18.3696 13.5479 17.7719L13.8789 15.8423C13.9814 15.2446 13.71 14.4092 13.2758 13.986L11.8739 12.6194C11.4395 12.1962 11.5753 11.7785 12.1754 11.6912L14.1128 11.4097C14.7129 11.3225 15.4235 10.8062 15.6919 10.2625L16.5584 8.50689C16.8267 7.96313 17.2659 7.96313 17.5342 8.50689L18.4008 10.2625C18.6692 10.8062 19.3797 11.3225 19.9799 11.4097L21.9173 11.6912C22.5173 11.7785 22.653 12.1962 22.2188 12.6194Z" fill="black"/>
</svg>
