<svg width="17" height="20" viewBox="0 0 17 20" fill="none" xmlns="http://www.w3.org/2000/svg">
<path d="M6 16C5.45 16 4.97917 15.8042 4.5875 15.4125C4.19583 15.0209 4 14.55 4 14V2.00003C4 1.45003 4.19583 0.979197 4.5875 0.587531C4.97917 0.195864 5.45 3.05176e-05 6 3.05176e-05H15C15.55 3.05176e-05 16.0208 0.195864 16.4125 0.587531C16.8042 0.979197 17 1.45003 17 2.00003V14C17 14.55 16.8042 15.0209 16.4125 15.4125C16.0208 15.8042 15.55 16 15 16H6ZM6 14H15V2.00003H6V14ZM2 20C1.45 20 0.979167 19.8042 0.5875 19.4125C0.195833 19.0209 0 18.55 0 18V4.00003H2V18H13V20H2Z" fill="white"/>
</svg>
