<svg width="40" height="40" viewBox="0 0 40 40" fill="none" xmlns="http://www.w3.org/2000/svg">
<mask id="mask0_336_37" style="mask-type:alpha" maskUnits="userSpaceOnUse" x="0" y="0" width="40" height="40">
<rect width="40" height="40" fill="#D9D9D9"/>
</mask>
<g mask="url(#mask0_336_37)">
<path d="M5.4585 29.5L12.3335 11.1667H15.6252L22.5002 29.5H19.3335L17.7085 24.8334H10.2918L8.62516 29.5H5.4585ZM11.2502 22.1667H16.7085L14.0418 14.5834H13.8752L11.2502 22.1667ZM27.7085 29.9167C26.2918 29.9167 25.1668 29.5347 24.3335 28.7709C23.5002 28.007 23.0835 27 23.0835 25.75C23.0835 24.5278 23.5627 23.5209 24.521 22.7292C25.4793 21.9375 26.7085 21.5417 28.2085 21.5417C28.8474 21.5417 29.4724 21.5972 30.0835 21.7084C30.6946 21.8195 31.2224 21.9722 31.6668 22.1667V21.6667C31.6668 20.8611 31.3821 20.2084 30.8127 19.7084C30.2432 19.2084 29.4863 18.9584 28.5418 18.9584C27.9029 18.9584 27.3196 19.0903 26.7918 19.3542C26.2641 19.6181 25.8057 20 25.4168 20.5L23.4585 19.0417C24.1252 18.2361 24.8821 17.6389 25.7293 17.25C26.5766 16.8611 27.5279 16.6667 28.5835 16.6667C30.5002 16.6667 31.9307 17.1181 32.8752 18.0209C33.8196 18.9236 34.2918 20.2778 34.2918 22.0834V29.5H31.6668V27.9584H31.5002C31.1113 28.5972 30.5835 29.0834 29.9168 29.4167C29.2502 29.75 28.5141 29.9167 27.7085 29.9167ZM28.2085 27.6667C29.1807 27.6667 30.0071 27.3334 30.6877 26.6667C31.3682 26 31.7085 25.2222 31.7085 24.3334C31.3196 24.1111 30.8543 23.9375 30.3127 23.8125C29.771 23.6875 29.2363 23.625 28.7085 23.625C27.8196 23.625 27.1252 23.8195 26.6252 24.2084C26.1252 24.5972 25.8752 25.1111 25.8752 25.75C25.8752 26.3056 26.0974 26.7639 26.5418 27.125C26.9863 27.4861 27.5418 27.6667 28.2085 27.6667Z" fill="#5B84B6"/>
</g>
</svg>
