<svg width="30" height="30" viewBox="0 0 30 30" fill="none" xmlns="http://www.w3.org/2000/svg">
<g clip-path="url(#clip0_340_11)">
<path fill-rule="evenodd" clip-rule="evenodd" d="M6.45432 15C6.45432 14.0473 6.61255 13.134 6.89495 12.2773L1.95194 8.50262C0.988571 10.4586 0.445801 12.6626 0.445801 15C0.445801 17.3353 0.987903 19.538 1.94993 21.4926L6.89028 17.7106C6.61055 16.858 6.45432 15.948 6.45432 15Z" fill="#FBBC05"/>
<path fill-rule="evenodd" clip-rule="evenodd" d="M15.1335 6.33331C17.2031 6.33331 19.0724 7.06665 20.5412 8.26665L24.8139 3.99998C22.2102 1.73331 18.8721 0.333313 15.1335 0.333313C9.32928 0.333313 4.34087 3.65265 1.95215 8.50265L6.89516 12.2773C8.03411 8.81998 11.2807 6.33331 15.1335 6.33331Z" fill="#EB4335"/>
<path fill-rule="evenodd" clip-rule="evenodd" d="M15.1335 23.6667C11.2807 23.6667 8.03411 21.18 6.89516 17.7227L1.95215 21.4967C4.34087 26.3473 9.32928 29.6667 15.1335 29.6667C18.7159 29.6667 22.1361 28.3947 24.7031 26.0113L20.0111 22.384C18.6872 23.218 17.0202 23.6667 15.1335 23.6667Z" fill="#34A853"/>
<path fill-rule="evenodd" clip-rule="evenodd" d="M29.1532 15C29.1532 14.1333 29.0197 13.2 28.8194 12.3333H15.1333V18H23.0111C22.6172 19.932 21.5451 21.4173 20.0109 22.384L24.7029 26.0113C27.3994 23.5086 29.1532 19.7806 29.1532 15Z" fill="#4285F4"/>
</g>
<defs>
<clipPath id="clip0_340_11">
<rect width="30" height="30" fill="white"/>
</clipPath>
</defs>
</svg>
