<svg width="53" height="53" viewBox="0 0 53 53" fill="none" xmlns="http://www.w3.org/2000/svg">
<path d="M13.1588 24.8438V34.5742C13.1549 34.8492 13.2311 35.1193 13.3781 35.3517C13.5252 35.584 13.7367 35.7685 13.9869 35.8827L23.825 40.2138C25.0377 40.7531 26.3587 41.0045 27.6847 40.9485C29.0107 40.8925 30.3058 40.5305 31.4686 39.8908L38.5325 36.0152C38.7584 35.8917 38.9468 35.7096 39.0779 35.4881C39.2091 35.2666 39.2781 35.0138 39.2778 34.7564V25.117" stroke="white" stroke-width="2.2" stroke-linecap="round"/>
<path d="M28.7194 12.6041L45.6048 20.6038C45.7257 20.6619 45.8277 20.753 45.8991 20.8665C45.9704 20.98 46.0083 21.1114 46.0083 21.2455C46.0083 21.3797 45.9704 21.511 45.8991 21.6246C45.8277 21.7381 45.7257 21.8292 45.6048 21.8873L29.2576 30.1686C28.4647 30.5563 27.5938 30.7579 26.7112 30.7579C25.8285 30.7579 24.9576 30.5563 24.1647 30.1686L7.37031 22.0281C7.24945 21.97 7.14746 21.8789 7.07609 21.7654C7.00471 21.6518 6.96684 21.5204 6.96684 21.3863C6.96684 21.2522 7.00471 21.1208 7.07609 21.0073C7.14746 20.8937 7.24945 20.8027 7.37031 20.7445L23.7092 12.6538C24.4859 12.266 25.3405 12.06 26.2086 12.0514C27.0766 12.0428 27.9352 12.2318 28.7194 12.6041Z" stroke="white" stroke-width="2.2" stroke-linecap="round"/>
<path d="M26.4998 21.4153L44.4453 22.4836L44.1969 32.6695" stroke="white" stroke-width="2.2" stroke-linecap="round"/>
<path d="M44.1719 37.1994C43.0148 37.1994 42.0768 36.2613 42.0768 35.1042C42.0768 33.9471 43.0148 33.0091 44.1719 33.0091C45.3291 33.0091 46.2671 33.9471 46.2671 35.1042C46.2671 36.2613 45.3291 37.1994 44.1719 37.1994Z" stroke="white" stroke-width="2.2" stroke-linecap="round"/>
<path d="M43.4516 37.0669L41.7954 42.2592H46.5488L44.8677 37.0669" stroke="white" stroke-width="2.2" stroke-linecap="round"/>
</svg>
