<svg width="34" height="34" viewBox="0 0 34 34" fill="none" xmlns="http://www.w3.org/2000/svg">
<path d="M32 17.3059V19.5875C32 25.4387 32 28.3645 30.2426 30.1822C28.4854 32 25.6568 32 20 32H14C8.34314 32 5.51473 32 3.75736 30.1822C2 28.3645 2 25.4387 2 19.5875V17.3059C2 13.8732 2 12.1569 2.7788 10.7341C3.5576 9.31132 4.98043 8.42827 7.82605 6.6622L10.826 4.80031C13.8341 2.93343 15.3382 2 17 2C18.6619 2 20.1659 2.93343 23.174 4.80031L26.174 6.66218C29.0197 8.42827 30.4424 9.31132 31.2212 10.7341" stroke="white" stroke-width="2.3" stroke-linecap="round"/>
<path d="M21.5 26H12.5" stroke="white" stroke-width="2.3" stroke-linecap="round"/>
</svg>
