<svg width="39" height="31" viewBox="0 0 39 31" fill="none" xmlns="http://www.w3.org/2000/svg">
<path d="M38.6903 28.015L21.1404 0.890039C20.7815 0.33543 20.1636 0 19.5 0C18.8364 0 18.2185 0.33543 17.8596 0.890039L0.309751 28.015C0.120361 28.3077 0.0137972 28.6457 0.00125187 28.9934C-0.0112935 29.3412 0.070643 29.6859 0.238455 29.9913C0.406345 30.2966 0.653881 30.5514 0.955071 30.7289C1.25626 30.9064 1.59999 31 1.95017 31H37.0498C37.7634 31 38.4197 30.6131 38.7615 29.9907C38.9294 29.6854 39.0113 29.3408 38.9987 28.9931C38.9862 28.6455 38.8796 28.3076 38.6903 28.015ZM19.5 5.52066L24.7034 13.5625H19.5L15.6 17.4375L13.2808 15.1331L19.5 5.52066Z" fill="#411919"/>
</svg>
